<?xml version="1.0" encoding="utf-8"?>
<!-- Generator: Adobe Illustrator 16.0.0, SVG Export Plug-In . SVG Version: 6.00 Build 0)  -->
<!DOCTYPE svg PUBLIC "-//W3C//DTD SVG 1.1//EN" "http://www.w3.org/Graphics/SVG/1.1/DTD/svg11.dtd">
<svg version="1.1" id="レイヤー_1" xmlns="http://www.w3.org/2000/svg" xmlns:xlink="http://www.w3.org/1999/xlink" x="0px"
	 y="0px" width="1024px" height="273.944px" viewBox="0 0 1024 273.944" enable-background="new 0 0 1024 273.944"
	 xml:space="preserve">
<linearGradient id="SVGID_1_" gradientUnits="userSpaceOnUse" x1="200.4937" y1="51.4141" x2="200.4937" y2="10.3018">
	<stop  offset="0" style="stop-color:#3F3B3E"/>
	<stop  offset="0.4557" style="stop-color:#413D40"/>
	<stop  offset="0.6403" style="stop-color:#484447"/>
	<stop  offset="0.7759" style="stop-color:#545053"/>
	<stop  offset="0.8874" style="stop-color:#666264"/>
	<stop  offset="0.9831" style="stop-color:#7C787A"/>
	<stop  offset="1" style="stop-color:#817D7F"/>
</linearGradient>
<path fill="url(#SVGID_1_)" d="M221.048,30.858c0,11.353-9.204,20.556-20.555,20.556c-11.36,0-20.554-9.203-20.554-20.556
	c0-11.354,9.193-20.556,20.554-20.556C211.844,10.302,221.048,19.504,221.048,30.858z"/>
<linearGradient id="SVGID_2_" gradientUnits="userSpaceOnUse" x1="944.4883" y1="263.6436" x2="944.4883" y2="79.522">
	<stop  offset="0" style="stop-color:#7D7D7D"/>
	<stop  offset="0.4589" style="stop-color:#7F7F7F"/>
	<stop  offset="0.6448" style="stop-color:#868686"/>
	<stop  offset="0.7812" style="stop-color:#929292"/>
	<stop  offset="0.8928" style="stop-color:#A4A4A4"/>
	<stop  offset="0.9892" style="stop-color:#BABABA"/>
	<stop  offset="1" style="stop-color:#BDBDBD"/>
</linearGradient>
<path fill="url(#SVGID_2_)" d="M1013.698,86.261l-4.518-2.919c-14.419-8.285-33.354-2.651-41.19,12.612l-24.746,48.268
	l-19.448-45.983c-6.965-15.723-25.465-23.238-40.34-15.87l-8.179,4.08l44.425,103.644l-34.268,66.717l6.147,3.117
	c14.425,8.289,31.883,2.186,39.712-13.072L1013.698,86.261z"/>
<linearGradient id="SVGID_3_" gradientUnits="userSpaceOnUse" x1="200.3574" y1="223.833" x2="200.3574" y2="79.5259">
	<stop  offset="0" style="stop-color:#3F3B3E"/>
	<stop  offset="0.4557" style="stop-color:#413D40"/>
	<stop  offset="0.6403" style="stop-color:#484447"/>
	<stop  offset="0.7759" style="stop-color:#545053"/>
	<stop  offset="0.8874" style="stop-color:#666264"/>
	<stop  offset="0.9831" style="stop-color:#7C787A"/>
	<stop  offset="1" style="stop-color:#817D7F"/>
</linearGradient>
<path fill="url(#SVGID_3_)" d="M189.345,79.525h-9.406v144.308h40.836V110.965C220.775,93.603,206.7,79.525,189.345,79.525z"/>
<linearGradient id="SVGID_4_" gradientUnits="userSpaceOnUse" x1="80.5635" y1="224.4678" x2="80.5635" y2="10.3022">
	<stop  offset="0" style="stop-color:#3F3B3E"/>
	<stop  offset="0.4557" style="stop-color:#413D40"/>
	<stop  offset="0.6403" style="stop-color:#484447"/>
	<stop  offset="0.7759" style="stop-color:#545053"/>
	<stop  offset="0.8874" style="stop-color:#666264"/>
	<stop  offset="0.9831" style="stop-color:#7C787A"/>
	<stop  offset="1" style="stop-color:#817D7F"/>
</linearGradient>
<path fill="url(#SVGID_4_)" d="M93.126,79.869c-25.365,0-36.008,13.195-41.598,20.908V53.824c0-0.008,0-0.016,0-0.028V42.038
	c0-17.528-14.208-31.736-31.733-31.736h-9.493L10.3,224.468h41.228l0-21.869c4.426,7.062,15.32,21.699,39.651,21.699
	c33.437,0,59.648-26.346,59.648-72.633C150.827,126.154,141.341,79.869,93.126,79.869z M79.383,190.085
	c-18.433,0-27.646-13.004-27.646-37.098c0-27.824,13.427-39.742,28.169-39.742c16.852,0,29.48,14.906,29.48,40.488
	C109.386,178.327,97.282,190.085,79.383,190.085z"/>
<linearGradient id="SVGID_5_" gradientUnits="userSpaceOnUse" x1="293.4478" y1="224.2979" x2="293.4478" y2="44.8296">
	<stop  offset="0" style="stop-color:#3F3B3E"/>
	<stop  offset="0.4557" style="stop-color:#413D40"/>
	<stop  offset="0.6403" style="stop-color:#484447"/>
	<stop  offset="0.7759" style="stop-color:#545053"/>
	<stop  offset="0.8874" style="stop-color:#666264"/>
	<stop  offset="0.9831" style="stop-color:#7C787A"/>
	<stop  offset="1" style="stop-color:#817D7F"/>
</linearGradient>
<path fill="url(#SVGID_5_)" d="M306.029,79.525V44.829h-40.848v34.696h-15.157v34.527h15.157v78.691
	c0,17.373,14.078,31.443,31.443,31.443h8.7l0.103,0.111c17.366,0,31.444-14.076,31.444-31.438v-2.775H306.02l-0.117-76.033h30.969
	V79.525H306.029z"/>
<linearGradient id="SVGID_6_" gradientUnits="userSpaceOnUse" x1="776.0303" y1="224.1338" x2="776.0303" y2="79.6743">
	<stop  offset="0" style="stop-color:#7D7D7D"/>
	<stop  offset="0.4589" style="stop-color:#7F7F7F"/>
	<stop  offset="0.6448" style="stop-color:#868686"/>
	<stop  offset="0.7812" style="stop-color:#929292"/>
	<stop  offset="0.8928" style="stop-color:#A4A4A4"/>
	<stop  offset="0.9892" style="stop-color:#BABABA"/>
	<stop  offset="1" style="stop-color:#BDBDBD"/>
</linearGradient>
<path fill="url(#SVGID_6_)" d="M805.098,79.674v0.195v85.315l-57.836-85.511h-9.413c-17.361,0-31.427,13.914-31.427,31.086v113.374
	h40.84v-84.633l57.836,84.633h9.104c17.368,0,31.437-13.922,31.437-31.09V79.674H805.098z"/>
<linearGradient id="SVGID_7_" gradientUnits="userSpaceOnUse" x1="447.498" y1="224.2979" x2="447.498" y2="79.5259">
	<stop  offset="0" style="stop-color:#7D7D7D"/>
	<stop  offset="0.4589" style="stop-color:#7F7F7F"/>
	<stop  offset="0.6448" style="stop-color:#868686"/>
	<stop  offset="0.7812" style="stop-color:#929292"/>
	<stop  offset="0.8928" style="stop-color:#A4A4A4"/>
	<stop  offset="0.9892" style="stop-color:#BABABA"/>
	<stop  offset="1" style="stop-color:#BDBDBD"/>
</linearGradient>
<path fill="url(#SVGID_7_)" d="M517.109,114.052v-3.09c0-17.362-14.08-31.437-31.439-31.437h-107.58v34.527h79.41l-79.615,76.033
	v2.775c0,17.361,14.075,31.438,31.441,31.438h107.782V192.86v-2.768v-0.008h-85.58L517.109,114.052z"/>
<g>
	<linearGradient id="SVGID_8_" gradientUnits="userSpaceOnUse" x1="607.2988" y1="224.8975" x2="607.2988" y2="79.5259">
		<stop  offset="0" style="stop-color:#7D7D7D"/>
		<stop  offset="0.4589" style="stop-color:#7F7F7F"/>
		<stop  offset="0.6448" style="stop-color:#868686"/>
		<stop  offset="0.7812" style="stop-color:#929292"/>
		<stop  offset="0.8928" style="stop-color:#A4A4A4"/>
		<stop  offset="0.9892" style="stop-color:#BABABA"/>
		<stop  offset="1" style="stop-color:#BDBDBD"/>
	</linearGradient>
	<path fill="url(#SVGID_8_)" d="M578.207,169.077c0.906,8.465,12.595,22.104,34.464,21.008c13.628-0.674,20.271-7.904,22.602-10.6
		l36.641,10.6c-6.28,14.525-26.818,34.812-62.767,34.812c-41.487,0-71.953-28.342-71.953-72.42
		c0-49.495,34.768-72.952,70.498-72.952c52.266,0,75.224,45.169,68.6,89.552H578.207z M635.152,135.115
		c-1.457-9.018-8.5-21.063-28.469-21.063c-19.774,0-27.315,12.045-28.477,21.063H635.152z"/>
</g>
</svg>
