<?xml version="1.0" encoding="utf-8"?>
<!-- Generator: Adobe Illustrator 16.0.0, SVG Export Plug-In . SVG Version: 6.00 Build 0)  -->
<!DOCTYPE svg PUBLIC "-//W3C//DTD SVG 1.1//EN" "http://www.w3.org/Graphics/SVG/1.1/DTD/svg11.dtd">
<svg version="1.1" id="レイヤー_1" xmlns="http://www.w3.org/2000/svg" xmlns:xlink="http://www.w3.org/1999/xlink" x="0px"
	 y="0px" width="1024px" height="273.066px" viewBox="0 0 1024 273.066" enable-background="new 0 0 1024 273.066"
	 xml:space="preserve">
<g>
	<linearGradient id="SVGID_1_" gradientUnits="userSpaceOnUse" x1="159.7583" y1="212.8096" x2="159.7583" y2="9.6665">
		<stop  offset="0.04" style="stop-color:#898989"/>
		<stop  offset="0.1734" style="stop-color:#737273"/>
		<stop  offset="0.3541" style="stop-color:#5C5A5C"/>
		<stop  offset="0.5451" style="stop-color:#4C494B"/>
		<stop  offset="0.7513" style="stop-color:#423E41"/>
		<stop  offset="1" style="stop-color:#3F3B3E"/>
	</linearGradient>
	<path fill="url(#SVGID_1_)" d="M136.664,38.836L136.664,38.836c0.004,0,0.004,0,0.004,0c54.528,0,98.728,44.204,98.728,98.727
		c0,30.159-13.534,57.134-34.846,75.247h38.279c15.765-21.185,25.098-47.448,25.098-75.89c0-70.281-56.973-127.254-127.258-127.254
		c-30.81,0-59.062,10.95-81.079,29.17H136.664z"/>
	<linearGradient id="SVGID_2_" gradientUnits="userSpaceOnUse" x1="112.9209" y1="264.1768" x2="112.9209" y2="61.7363">
		<stop  offset="0.04" style="stop-color:#898989"/>
		<stop  offset="0.1734" style="stop-color:#737273"/>
		<stop  offset="0.3541" style="stop-color:#5C5A5C"/>
		<stop  offset="0.5451" style="stop-color:#4C494B"/>
		<stop  offset="0.7513" style="stop-color:#423E41"/>
		<stop  offset="1" style="stop-color:#3F3B3E"/>
	</linearGradient>
	<path fill="url(#SVGID_2_)" d="M136.668,236.285c-54.524,0-98.724-44.195-98.724-98.723c0-30.473,13.815-57.717,35.515-75.827H34
		C18.546,82.803,9.412,108.793,9.412,136.92c0,70.29,56.974,127.257,127.257,127.257c30.411,0,57.875-10.307,79.762-28.104
		C216.43,236.073,140.262,236.285,136.668,236.285z"/>
</g>
<linearGradient id="SVGID_3_" gradientUnits="userSpaceOnUse" x1="439.604" y1="90.7593" x2="439.604" y2="61.7358">
	<stop  offset="0" style="stop-color:#3F3B3E"/>
	<stop  offset="0.4557" style="stop-color:#413D40"/>
	<stop  offset="0.6403" style="stop-color:#484447"/>
	<stop  offset="0.7759" style="stop-color:#545053"/>
	<stop  offset="0.8874" style="stop-color:#666264"/>
	<stop  offset="0.9831" style="stop-color:#7C787A"/>
	<stop  offset="1" style="stop-color:#817D7F"/>
</linearGradient>
<path fill="url(#SVGID_3_)" d="M454.114,76.248c0,8.015-6.498,14.512-14.511,14.512c-8.02,0-14.51-6.497-14.51-14.512
	s6.49-14.512,14.51-14.512C447.617,61.736,454.114,68.232,454.114,76.248z"/>
<linearGradient id="SVGID_4_" gradientUnits="userSpaceOnUse" x1="964.8379" y1="240.5859" x2="964.8379" y2="110.603">
	<stop  offset="0" style="stop-color:#7D7D7D"/>
	<stop  offset="0.4589" style="stop-color:#7F7F7F"/>
	<stop  offset="0.6448" style="stop-color:#868686"/>
	<stop  offset="0.7812" style="stop-color:#929292"/>
	<stop  offset="0.8928" style="stop-color:#A4A4A4"/>
	<stop  offset="0.9892" style="stop-color:#BABABA"/>
	<stop  offset="1" style="stop-color:#BDBDBD"/>
</linearGradient>
<path fill="url(#SVGID_4_)" d="M1013.698,115.36l-3.189-2.061c-10.179-5.849-23.546-1.871-29.079,8.904l-17.47,34.075
	l-13.729-32.462c-4.917-11.1-17.978-16.405-28.479-11.204l-5.773,2.88l31.361,73.169l-24.191,47.1l4.34,2.2
	c10.184,5.852,22.509,1.543,28.035-9.229L1013.698,115.36z"/>
<linearGradient id="SVGID_5_" gradientUnits="userSpaceOnUse" x1="439.5073" y1="212.4814" x2="439.5073" y2="110.6055">
	<stop  offset="0" style="stop-color:#3F3B3E"/>
	<stop  offset="0.4557" style="stop-color:#413D40"/>
	<stop  offset="0.6403" style="stop-color:#484447"/>
	<stop  offset="0.7759" style="stop-color:#545053"/>
	<stop  offset="0.8874" style="stop-color:#666264"/>
	<stop  offset="0.9831" style="stop-color:#7C787A"/>
	<stop  offset="1" style="stop-color:#817D7F"/>
</linearGradient>
<path fill="url(#SVGID_5_)" d="M431.733,110.605h-6.64v101.876h28.829v-79.681C453.922,120.543,443.985,110.605,431.733,110.605z"/>
<linearGradient id="SVGID_6_" gradientUnits="userSpaceOnUse" x1="354.937" y1="212.9297" x2="354.937" y2="61.7363">
	<stop  offset="0" style="stop-color:#3F3B3E"/>
	<stop  offset="0.4557" style="stop-color:#413D40"/>
	<stop  offset="0.6403" style="stop-color:#484447"/>
	<stop  offset="0.7759" style="stop-color:#545053"/>
	<stop  offset="0.8874" style="stop-color:#666264"/>
	<stop  offset="0.9831" style="stop-color:#7C787A"/>
	<stop  offset="1" style="stop-color:#817D7F"/>
</linearGradient>
<path fill="url(#SVGID_6_)" d="M363.806,110.848c-17.906,0-25.42,9.314-29.367,14.76V92.461c0-0.006,0-0.011,0-0.02V84.14
	c0-12.375-10.03-22.404-22.402-22.404h-6.702l-0.001,151.194h29.105l0-15.439c3.125,4.986,10.815,15.319,27.993,15.319
	c23.605,0,42.109-18.6,42.109-51.276C404.541,143.523,397.844,110.848,363.806,110.848z M354.104,188.656
	c-13.013,0-19.517-9.18-19.517-26.189c0-19.644,9.479-28.056,19.886-28.056c11.897,0,20.812,10.523,20.812,28.583
	C375.285,180.356,366.74,188.656,354.104,188.656z"/>
<linearGradient id="SVGID_7_" gradientUnits="userSpaceOnUse" x1="505.2266" y1="212.8096" x2="505.2266" y2="86.1113">
	<stop  offset="0" style="stop-color:#3F3B3E"/>
	<stop  offset="0.4557" style="stop-color:#413D40"/>
	<stop  offset="0.6403" style="stop-color:#484447"/>
	<stop  offset="0.7759" style="stop-color:#545053"/>
	<stop  offset="0.8874" style="stop-color:#666264"/>
	<stop  offset="0.9831" style="stop-color:#7C787A"/>
	<stop  offset="1" style="stop-color:#817D7F"/>
</linearGradient>
<path fill="url(#SVGID_7_)" d="M514.108,110.605V86.111h-28.837v24.494h-10.7v24.375h10.7v55.553
	c0,12.264,9.939,22.197,22.198,22.197h6.142l0.072,0.079c12.26,0,22.198-9.937,22.198-22.193v-1.96h-21.78l-0.083-53.676h21.863
	v-24.375H514.108z"/>
<linearGradient id="SVGID_8_" gradientUnits="userSpaceOnUse" x1="845.9121" y1="212.6934" x2="845.9121" y2="110.7104">
	<stop  offset="0" style="stop-color:#7D7D7D"/>
	<stop  offset="0.4589" style="stop-color:#7F7F7F"/>
	<stop  offset="0.6448" style="stop-color:#868686"/>
	<stop  offset="0.7812" style="stop-color:#929292"/>
	<stop  offset="0.8928" style="stop-color:#A4A4A4"/>
	<stop  offset="0.9892" style="stop-color:#BABABA"/>
	<stop  offset="1" style="stop-color:#BDBDBD"/>
</linearGradient>
<path fill="url(#SVGID_8_)" d="M866.434,110.71v0.138v60.229l-40.83-60.367h-6.646c-12.257,0-22.187,9.823-22.187,21.946v80.038
	h28.832v-59.747l40.83,59.747h6.428c12.261,0,22.192-9.828,22.192-21.948V110.71H866.434z"/>
<linearGradient id="SVGID_9_" gradientUnits="userSpaceOnUse" x1="613.9805" y1="212.8096" x2="613.9805" y2="110.6055">
	<stop  offset="0" style="stop-color:#7D7D7D"/>
	<stop  offset="0.4589" style="stop-color:#7F7F7F"/>
	<stop  offset="0.6448" style="stop-color:#868686"/>
	<stop  offset="0.7812" style="stop-color:#929292"/>
	<stop  offset="0.8928" style="stop-color:#A4A4A4"/>
	<stop  offset="0.9892" style="stop-color:#BABABA"/>
	<stop  offset="1" style="stop-color:#BDBDBD"/>
</linearGradient>
<path fill="url(#SVGID_9_)" d="M663.123,134.98v-2.182c0-12.257-9.939-22.193-22.194-22.193h-75.947v24.375h56.061l-56.205,53.676
	v1.96c0,12.257,9.937,22.193,22.196,22.193h76.09v-22.193v-1.954v-0.006h-60.416L663.123,134.98z"/>
<linearGradient id="SVGID_10_" gradientUnits="userSpaceOnUse" x1="3644.4736" y1="1778.041" x2="3746.8125" y2="1778.041" gradientTransform="matrix(0 1 -1 0 1914.709 -3558.1562)">
	<stop  offset="0.04" style="stop-color:#9FA0A0"/>
	<stop  offset="0.1029" style="stop-color:#919192"/>
	<stop  offset="0.2585" style="stop-color:#737273"/>
	<stop  offset="0.4214" style="stop-color:#5C5A5C"/>
	<stop  offset="0.5925" style="stop-color:#4C494B"/>
	<stop  offset="0.7772" style="stop-color:#423E41"/>
	<stop  offset="1" style="stop-color:#3F3B3E"/>
</linearGradient>
<path fill="url(#SVGID_10_)" d="M187.84,166.637v-58.294c0-12.165-9.859-22.025-22.023-22.025H107.52
	c-12.164,0-22.025,9.86-22.025,22.025v58.294c0,12.165,9.861,22.02,22.025,22.02h58.297
	C177.981,188.656,187.84,178.802,187.84,166.637z M113.904,160.259v-45.536h45.53v45.536H113.904z"/>
<g>
	<linearGradient id="SVGID_11_" gradientUnits="userSpaceOnUse" x1="726.7939" y1="213.2334" x2="726.7939" y2="110.6055">
		<stop  offset="0" style="stop-color:#7D7D7D"/>
		<stop  offset="0.4589" style="stop-color:#7F7F7F"/>
		<stop  offset="0.6448" style="stop-color:#868686"/>
		<stop  offset="0.7812" style="stop-color:#929292"/>
		<stop  offset="0.8928" style="stop-color:#A4A4A4"/>
		<stop  offset="0.9892" style="stop-color:#BABABA"/>
		<stop  offset="1" style="stop-color:#BDBDBD"/>
	</linearGradient>
	<path fill="url(#SVGID_11_)" d="M706.257,173.825c0.64,5.977,8.892,15.604,24.33,14.831c9.62-0.475,14.31-5.579,15.956-7.482
		l25.867,7.482c-4.434,10.254-18.934,24.577-44.312,24.577c-29.289,0-50.797-20.009-50.797-51.127
		c0-34.941,24.545-51.501,49.77-51.501c36.897,0,53.105,31.888,48.429,63.22H706.257z M746.458,149.85
		c-1.028-6.366-6.001-14.87-20.098-14.87c-13.96,0-19.284,8.503-20.104,14.87H746.458z"/>
</g>
</svg>
