<?xml version="1.0" encoding="utf-8"?>
<!-- Generator: Adobe Illustrator 16.0.0, SVG Export Plug-In . SVG Version: 6.00 Build 0)  -->
<!DOCTYPE svg PUBLIC "-//W3C//DTD SVG 1.1//EN" "http://www.w3.org/Graphics/SVG/1.1/DTD/svg11.dtd">
<svg version="1.1" id="レイヤー_1" xmlns="http://www.w3.org/2000/svg" xmlns:xlink="http://www.w3.org/1999/xlink" x="0px"
	 y="0px" width="3000px" height="3000px" viewBox="0 0 3000 3000" enable-background="new 0 0 3000 3000" xml:space="preserve">
<g>
	<linearGradient id="SVGID_1_" gradientUnits="userSpaceOnUse" x1="1732.4199" y1="2257.1641" x2="1732.4198" y2="219.9678">
		<stop  offset="0.04" style="stop-color:#676365"/>
		<stop  offset="0.1422" style="stop-color:#5E5A5C"/>
		<stop  offset="0.3953" style="stop-color:#4D494B"/>
		<stop  offset="0.6693" style="stop-color:#423E41"/>
		<stop  offset="1" style="stop-color:#3F3B3E"/>
	</linearGradient>
	<path fill="url(#SVGID_1_)" d="M1500.86,512.494L1500.86,512.494c0.017,0,0.017,0,0.017,0
		c546.812,0,990.064,443.283,990.064,990.066c0,302.42-135.757,572.985-349.465,754.604h383.866
		c158.122-212.48,251.691-475.824,251.691-761.04c0-704.806-571.347-1276.157-1276.157-1276.157
		c-308.967,0-592.284,109.81-813.071,292.526H1500.86z"/>
	<linearGradient id="SVGID_2_" gradientUnits="userSpaceOnUse" x1="1262.7397" y1="2772.2832" x2="1262.7396" y2="742.1558">
		<stop  offset="0.04" style="stop-color:#676365"/>
		<stop  offset="0.1422" style="stop-color:#5E5A5C"/>
		<stop  offset="0.3953" style="stop-color:#4D494B"/>
		<stop  offset="0.6693" style="stop-color:#423E41"/>
		<stop  offset="1" style="stop-color:#3F3B3E"/>
	</linearGradient>
	<path fill="url(#SVGID_2_)" d="M1500.877,2492.624c-546.774,0-990.045-443.264-990.045-990.064
		c0-305.607,138.544-578.805,356.173-760.404H471.291c-154.959,211.246-246.572,471.891-246.572,753.969
		c0,704.804,571.381,1276.159,1276.158,1276.159c304.941,0,580.381-103.408,799.884-281.846
		C2300.761,2490.438,1536.917,2492.624,1500.877,2492.624z"/>
</g>
<linearGradient id="SVGID_3_" gradientUnits="userSpaceOnUse" x1="4152.791" y1="2768.209" x2="5208.5215" y2="2768.209" gradientTransform="matrix(0 1 -1 0 4267.709 -3181.1562)">
	<stop  offset="0.04" style="stop-color:#777375"/>
	<stop  offset="0.0485" style="stop-color:#767274"/>
	<stop  offset="0.2568" style="stop-color:#5E5A5C"/>
	<stop  offset="0.476" style="stop-color:#4D494B"/>
	<stop  offset="0.7135" style="stop-color:#423E41"/>
	<stop  offset="1" style="stop-color:#3F3B3E"/>
</linearGradient>
<path fill="url(#SVGID_3_)" d="M2027.365,1800.175v-601.346c0-125.48-101.718-227.194-227.191-227.194H1198.83
	c-125.477,0-227.195,101.714-227.195,227.194v601.346c0,125.48,101.718,227.19,227.195,227.19h601.344
	C1925.647,2027.365,2027.365,1925.655,2027.365,1800.175z M1264.665,1734.344v-469.679h469.677v469.679H1264.665z"/>
</svg>
