<?xml version="1.0" encoding="utf-8"?>
<!-- Generator: Adobe Illustrator 16.0.0, SVG Export Plug-In . SVG Version: 6.00 Build 0)  -->
<!DOCTYPE svg PUBLIC "-//W3C//DTD SVG 1.1//EN" "http://www.w3.org/Graphics/SVG/1.1/DTD/svg11.dtd">
<svg version="1.1" id="レイヤー_1" xmlns="http://www.w3.org/2000/svg" xmlns:xlink="http://www.w3.org/1999/xlink" x="0px"
	 y="0px" width="966.146px" height="254.511px" viewBox="0 0 966.146 254.511" enable-background="new 0 0 966.146 254.511"
	 xml:space="preserve">
<g>
	<linearGradient id="SVGID_1_" gradientUnits="userSpaceOnUse" x1="150.3467" y1="0" x2="150.3467" y2="203.144">
		<stop  offset="0" style="stop-color:#3F3B3E"/>
		<stop  offset="0.4557" style="stop-color:#413D40"/>
		<stop  offset="0.6403" style="stop-color:#484447"/>
		<stop  offset="0.7759" style="stop-color:#545053"/>
		<stop  offset="0.8874" style="stop-color:#666264"/>
		<stop  offset="0.9831" style="stop-color:#7C787A"/>
		<stop  offset="1" style="stop-color:#817D7F"/>
	</linearGradient>
	<path fill="url(#SVGID_1_)" d="M127.253,29.17L127.253,29.17c0.004,0,0.004,0,0.004,0c54.529,0,98.728,44.204,98.728,98.727
		c0,30.159-13.533,57.134-34.846,75.247h38.279c15.766-21.185,25.098-47.448,25.098-75.89C254.516,56.973,197.543,0,127.257,0
		c-30.81,0-59.062,10.95-81.079,29.17H127.253z"/>
	<linearGradient id="SVGID_2_" gradientUnits="userSpaceOnUse" x1="103.5098" y1="52.0698" x2="103.5098" y2="254.5112">
		<stop  offset="0" style="stop-color:#3F3B3E"/>
		<stop  offset="0.4557" style="stop-color:#413D40"/>
		<stop  offset="0.6403" style="stop-color:#484447"/>
		<stop  offset="0.7759" style="stop-color:#545053"/>
		<stop  offset="0.8874" style="stop-color:#666264"/>
		<stop  offset="0.9831" style="stop-color:#7C787A"/>
		<stop  offset="1" style="stop-color:#817D7F"/>
	</linearGradient>
	<path fill="url(#SVGID_2_)" d="M127.257,226.619c-54.524,0-98.724-44.195-98.724-98.723c0-30.473,13.815-57.717,35.516-75.827
		h-39.46C9.135,73.137,0,99.127,0,127.254c0,70.29,56.975,127.257,127.257,127.257c30.411,0,57.875-10.307,79.763-28.104
		C207.02,226.407,130.851,226.619,127.257,226.619z"/>
</g>
<linearGradient id="SVGID_3_" gradientUnits="userSpaceOnUse" x1="918.5029" y1="225.4609" x2="918.5029" y2="104.3691">
	<stop  offset="0" style="stop-color:#7D7D7D"/>
	<stop  offset="0.4589" style="stop-color:#7F7F7F"/>
	<stop  offset="0.6448" style="stop-color:#868686"/>
	<stop  offset="0.7812" style="stop-color:#929292"/>
	<stop  offset="0.8928" style="stop-color:#A4A4A4"/>
	<stop  offset="0.9892" style="stop-color:#BABABA"/>
	<stop  offset="1" style="stop-color:#BDBDBD"/>
</linearGradient>
<path fill="url(#SVGID_3_)" d="M966.146,108.946l-3.235-1.982c-10.324-5.627-23.884-1.8-29.496,8.566l-15.627,28.82l-12.185-27.269
	c-4.988-10.679-18.235-15.783-28.887-10.779l-5.856,2.771l30.069,66.433l-24.538,45.313l4.402,2.117
	c10.329,5.63,22.831,1.484,28.437-8.879L966.146,108.946z"/>
<g>
	<linearGradient id="SVGID_4_" gradientUnits="userSpaceOnUse" x1="426.1924" y1="81.0933" x2="426.1924" y2="52.0698">
		<stop  offset="0" style="stop-color:#3F3B3E"/>
		<stop  offset="0.4557" style="stop-color:#413D40"/>
		<stop  offset="0.6403" style="stop-color:#484447"/>
		<stop  offset="0.7759" style="stop-color:#545053"/>
		<stop  offset="0.8874" style="stop-color:#666264"/>
		<stop  offset="0.9831" style="stop-color:#7C787A"/>
		<stop  offset="1" style="stop-color:#817D7F"/>
	</linearGradient>
	<path fill="url(#SVGID_4_)" d="M440.703,66.582c0,8.015-6.498,14.512-14.511,14.512c-8.021,0-14.51-6.497-14.51-14.512
		s6.489-14.512,14.51-14.512C434.205,52.07,440.703,58.566,440.703,66.582z"/>
	<linearGradient id="SVGID_5_" gradientUnits="userSpaceOnUse" x1="426.0967" y1="202.8096" x2="426.0967" y2="104.7231">
		<stop  offset="0" style="stop-color:#3F3B3E"/>
		<stop  offset="0.4557" style="stop-color:#413D40"/>
		<stop  offset="0.6403" style="stop-color:#484447"/>
		<stop  offset="0.7759" style="stop-color:#545053"/>
		<stop  offset="0.8874" style="stop-color:#666264"/>
		<stop  offset="0.9831" style="stop-color:#7C787A"/>
		<stop  offset="1" style="stop-color:#817D7F"/>
	</linearGradient>
	<path fill="url(#SVGID_5_)" d="M418.322,104.723h-6.64v98.087h28.828v-76.364C440.511,114.449,430.574,104.723,418.322,104.723z"/>
</g>
<linearGradient id="SVGID_6_" gradientUnits="userSpaceOnUse" x1="491.8975" y1="202.624" x2="491.8975" y2="75.9258">
	<stop  offset="0" style="stop-color:#3F3B3E"/>
	<stop  offset="0.4557" style="stop-color:#413D40"/>
	<stop  offset="0.6403" style="stop-color:#484447"/>
	<stop  offset="0.7759" style="stop-color:#545053"/>
	<stop  offset="0.8874" style="stop-color:#666264"/>
	<stop  offset="0.9831" style="stop-color:#7C787A"/>
	<stop  offset="1" style="stop-color:#817D7F"/>
</linearGradient>
<path fill="url(#SVGID_6_)" d="M500.78,104.537V75.925h-28.837v28.612h-10.701v24.375h10.701v51.436
	c0,12.264,9.938,22.197,22.197,22.197h6.143l0.072,0.079c12.26,0,22.198-9.937,22.198-22.193v-1.96h-21.78l-0.083-49.559h21.863
	v-24.375H500.78z"/>
<linearGradient id="SVGID_7_" gradientUnits="userSpaceOnUse" x1="588.2627" y1="202.4365" x2="588.2627" y2="104.3501">
	<stop  offset="0" style="stop-color:#7D7D7D"/>
	<stop  offset="0.4589" style="stop-color:#7F7F7F"/>
	<stop  offset="0.6448" style="stop-color:#868686"/>
	<stop  offset="0.7812" style="stop-color:#929292"/>
	<stop  offset="0.8928" style="stop-color:#A4A4A4"/>
	<stop  offset="0.9892" style="stop-color:#BABABA"/>
	<stop  offset="1" style="stop-color:#BDBDBD"/>
</linearGradient>
<path fill="url(#SVGID_7_)" d="M633.405,128.725v-2.182c0-12.257-9.939-22.193-22.194-22.193h-67.947v24.375h53.061l-53.205,49.559
	v1.96c0,12.257,9.937,22.193,22.196,22.193h68.09v-22.193v-1.954v-0.006h-52.416L633.405,128.725z"/>
<linearGradient id="SVGID_8_" gradientUnits="userSpaceOnUse" x1="127.2568" y1="178.9902" x2="127.2568" y2="76.6519">
	<stop  offset="0" style="stop-color:#3F3B3E"/>
	<stop  offset="0.4557" style="stop-color:#413D40"/>
	<stop  offset="0.6403" style="stop-color:#484447"/>
	<stop  offset="0.7759" style="stop-color:#545053"/>
	<stop  offset="0.8874" style="stop-color:#666264"/>
	<stop  offset="0.9831" style="stop-color:#7C787A"/>
	<stop  offset="1" style="stop-color:#817D7F"/>
</linearGradient>
<path fill="url(#SVGID_8_)" d="M178.429,156.971V98.676c0-12.165-9.859-22.025-22.023-22.025H98.108
	c-12.163,0-22.024,9.86-22.024,22.025v58.294c0,12.165,9.861,22.02,22.024,22.02h58.297
	C168.569,178.99,178.429,169.136,178.429,156.971z M104.493,150.593v-45.536h45.529v45.536H104.493z"/>
<g>
	<linearGradient id="SVGID_9_" gradientUnits="userSpaceOnUse" x1="696.8037" y1="202.6484" x2="696.8037" y2="104.1382">
		<stop  offset="0" style="stop-color:#7D7D7D"/>
		<stop  offset="0.4589" style="stop-color:#7F7F7F"/>
		<stop  offset="0.6448" style="stop-color:#868686"/>
		<stop  offset="0.7812" style="stop-color:#929292"/>
		<stop  offset="0.8928" style="stop-color:#A4A4A4"/>
		<stop  offset="0.9892" style="stop-color:#BABABA"/>
		<stop  offset="1" style="stop-color:#BDBDBD"/>
	</linearGradient>
	<path fill="url(#SVGID_9_)" d="M676.346,163.24c0.64,5.977,8.892,15.604,24.33,14.831c9.62-0.475,14.31-5.579,15.956-7.482
		l25.867,7.482c-4.434,10.254-18.934,24.577-44.312,24.577c-29.289,0-50.797-20.009-50.797-51.127
		c0-31.106,28.394-47.384,49.77-47.384c31.124,0,53.105,27.771,48.429,59.103H676.346z M716.547,143.382
		c-1.028-6.365-6.001-14.869-20.098-14.869c-13.96,0-19.284,8.504-20.104,14.869H716.547z"/>
</g>
<linearGradient id="SVGID_10_" gradientUnits="userSpaceOnUse" x1="811.083" y1="202.3779" x2="811.083" y2="104.4077">
	<stop  offset="0" style="stop-color:#7D7D7D"/>
	<stop  offset="0.4589" style="stop-color:#7F7F7F"/>
	<stop  offset="0.6448" style="stop-color:#868686"/>
	<stop  offset="0.7812" style="stop-color:#929292"/>
	<stop  offset="0.8928" style="stop-color:#A4A4A4"/>
	<stop  offset="0.9892" style="stop-color:#BABABA"/>
	<stop  offset="1" style="stop-color:#BDBDBD"/>
</linearGradient>
<path fill="url(#SVGID_10_)" d="M833.613,104.407h-67.248v97.971h28.832v-73.594h31.771v73.486H855.8v-75.918
	C855.8,114.229,845.87,104.407,833.613,104.407z"/>
<linearGradient id="SVGID_11_" gradientUnits="userSpaceOnUse" x1="343.5088" y1="202.791" x2="343.5088" y2="51.4414">
	<stop  offset="0" style="stop-color:#3F3B3E"/>
	<stop  offset="0.4557" style="stop-color:#413D40"/>
	<stop  offset="0.6403" style="stop-color:#484447"/>
	<stop  offset="0.7759" style="stop-color:#545053"/>
	<stop  offset="0.8874" style="stop-color:#666264"/>
	<stop  offset="0.9831" style="stop-color:#7C787A"/>
	<stop  offset="1" style="stop-color:#817D7F"/>
</linearGradient>
<path fill="url(#SVGID_11_)" d="M352.042,104.227c-17.229,0-24.459,8.97-28.259,14.208V81.01c0-0.008,0-0.013,0-0.022V73
	c0-11.907-9.65-21.559-21.558-21.559h-7.444l-0.004,151.346h29.006v-15.184c3.008,4.801,10.486,15.188,27.02,15.188
	c22.709,0,41.438-18.34,41.438-49.787C392.24,135.672,384.801,104.227,352.042,104.227z M342.698,178.635
	c-12.524,0-18.77-8.367-18.77-24.736c0-18.896,9.117-24.992,19.133-24.992c11.446,0,20.028,8.121,20.028,25.504
	C363.09,171.113,354.858,178.635,342.698,178.635z"/>
</svg>
