<?xml version="1.0" encoding="utf-8"?>
<!-- Generator: Adobe Illustrator 16.0.0, SVG Export Plug-In . SVG Version: 6.00 Build 0)  -->
<!DOCTYPE svg PUBLIC "-//W3C//DTD SVG 1.1//EN" "http://www.w3.org/Graphics/SVG/1.1/DTD/svg11.dtd">
<svg version="1.1" id="レイヤー_1" xmlns="http://www.w3.org/2000/svg" xmlns:xlink="http://www.w3.org/1999/xlink" x="0px"
	 y="0px" width="671.368px" height="173.391px" viewBox="0 0 671.368 173.391" enable-background="new 0 0 671.368 173.391"
	 xml:space="preserve">
<linearGradient id="SVGID_1_" gradientUnits="userSpaceOnUse" x1="623.7256" y1="173.3911" x2="623.7256" y2="52.2993">
	<stop  offset="0" style="stop-color:#7D7D7D"/>
	<stop  offset="0.4589" style="stop-color:#7F7F7F"/>
	<stop  offset="0.6448" style="stop-color:#868686"/>
	<stop  offset="0.7812" style="stop-color:#929292"/>
	<stop  offset="0.8928" style="stop-color:#A4A4A4"/>
	<stop  offset="0.9892" style="stop-color:#BABABA"/>
	<stop  offset="1" style="stop-color:#BDBDBD"/>
</linearGradient>
<path fill="url(#SVGID_1_)" d="M671.368,56.876l-3.235-1.982c-10.324-5.627-23.884-1.8-29.496,8.566L623.01,92.28l-12.185-27.269
	c-4.988-10.679-18.235-15.783-28.887-10.779l-5.856,2.771l30.069,66.433l-24.538,45.313l4.402,2.117
	c10.329,5.63,22.831,1.484,28.437-8.879L671.368,56.876z"/>
<g>
	<linearGradient id="SVGID_2_" gradientUnits="userSpaceOnUse" x1="131.415" y1="29.0234" x2="131.415" y2="0">
		<stop  offset="0" style="stop-color:#3F3B3E"/>
		<stop  offset="0.4557" style="stop-color:#413D40"/>
		<stop  offset="0.6403" style="stop-color:#484447"/>
		<stop  offset="0.7759" style="stop-color:#545053"/>
		<stop  offset="0.8874" style="stop-color:#666264"/>
		<stop  offset="0.9831" style="stop-color:#7C787A"/>
		<stop  offset="1" style="stop-color:#817D7F"/>
	</linearGradient>
	<path fill="url(#SVGID_2_)" d="M145.926,14.512c0,8.015-6.498,14.512-14.511,14.512c-8.021,0-14.51-6.497-14.51-14.512
		S123.395,0,131.415,0C139.428,0,145.926,6.497,145.926,14.512z"/>
	<linearGradient id="SVGID_3_" gradientUnits="userSpaceOnUse" x1="131.3193" y1="150.7397" x2="131.3193" y2="52.6533">
		<stop  offset="0" style="stop-color:#3F3B3E"/>
		<stop  offset="0.4557" style="stop-color:#413D40"/>
		<stop  offset="0.6403" style="stop-color:#484447"/>
		<stop  offset="0.7759" style="stop-color:#545053"/>
		<stop  offset="0.8874" style="stop-color:#666264"/>
		<stop  offset="0.9831" style="stop-color:#7C787A"/>
		<stop  offset="1" style="stop-color:#817D7F"/>
	</linearGradient>
	<path fill="url(#SVGID_3_)" d="M123.545,52.653h-6.64v98.087h28.828V74.375C145.733,62.379,135.797,52.653,123.545,52.653z"/>
</g>
<linearGradient id="SVGID_4_" gradientUnits="userSpaceOnUse" x1="197.1201" y1="150.5542" x2="197.1201" y2="23.856">
	<stop  offset="0" style="stop-color:#3F3B3E"/>
	<stop  offset="0.4557" style="stop-color:#413D40"/>
	<stop  offset="0.6403" style="stop-color:#484447"/>
	<stop  offset="0.7759" style="stop-color:#545053"/>
	<stop  offset="0.8874" style="stop-color:#666264"/>
	<stop  offset="0.9831" style="stop-color:#7C787A"/>
	<stop  offset="1" style="stop-color:#817D7F"/>
</linearGradient>
<path fill="url(#SVGID_4_)" d="M206.003,52.467V23.855h-28.837v28.612h-10.701v24.375h10.701v51.436
	c0,12.264,9.938,22.197,22.197,22.197h6.143l0.072,0.079c12.26,0,22.198-9.937,22.198-22.193v-1.96h-21.78l-0.083-49.559h21.863
	V52.467H206.003z"/>
<linearGradient id="SVGID_5_" gradientUnits="userSpaceOnUse" x1="293.4854" y1="150.3667" x2="293.4854" y2="52.2803">
	<stop  offset="0" style="stop-color:#7D7D7D"/>
	<stop  offset="0.4589" style="stop-color:#7F7F7F"/>
	<stop  offset="0.6448" style="stop-color:#868686"/>
	<stop  offset="0.7812" style="stop-color:#929292"/>
	<stop  offset="0.8928" style="stop-color:#A4A4A4"/>
	<stop  offset="0.9892" style="stop-color:#BABABA"/>
	<stop  offset="1" style="stop-color:#BDBDBD"/>
</linearGradient>
<path fill="url(#SVGID_5_)" d="M338.628,76.655v-2.182c0-12.257-9.939-22.193-22.194-22.193h-67.947v24.375h53.061l-53.205,49.559
	v1.96c0,12.257,9.937,22.193,22.196,22.193h68.09v-22.193v-1.954v-0.006h-52.416L338.628,76.655z"/>
<g>
	<linearGradient id="SVGID_6_" gradientUnits="userSpaceOnUse" x1="402.0264" y1="150.5786" x2="402.0264" y2="52.0684">
		<stop  offset="0" style="stop-color:#7D7D7D"/>
		<stop  offset="0.4589" style="stop-color:#7F7F7F"/>
		<stop  offset="0.6448" style="stop-color:#868686"/>
		<stop  offset="0.7812" style="stop-color:#929292"/>
		<stop  offset="0.8928" style="stop-color:#A4A4A4"/>
		<stop  offset="0.9892" style="stop-color:#BABABA"/>
		<stop  offset="1" style="stop-color:#BDBDBD"/>
	</linearGradient>
	<path fill="url(#SVGID_6_)" d="M381.568,111.17c0.64,5.977,8.892,15.604,24.33,14.831c9.62-0.475,14.31-5.579,15.956-7.482
		l25.867,7.482c-4.434,10.254-18.934,24.577-44.312,24.577c-29.289,0-50.797-20.009-50.797-51.127
		c0-31.106,28.394-47.384,49.77-47.384c31.124,0,53.105,27.771,48.429,59.103H381.568z M421.77,91.312
		c-1.028-6.365-6.001-14.869-20.098-14.869c-13.96,0-19.284,8.504-20.104,14.869H421.77z"/>
</g>
<linearGradient id="SVGID_7_" gradientUnits="userSpaceOnUse" x1="516.3057" y1="150.3081" x2="516.3057" y2="52.3379">
	<stop  offset="0" style="stop-color:#7D7D7D"/>
	<stop  offset="0.4589" style="stop-color:#7F7F7F"/>
	<stop  offset="0.6448" style="stop-color:#868686"/>
	<stop  offset="0.7812" style="stop-color:#929292"/>
	<stop  offset="0.8928" style="stop-color:#A4A4A4"/>
	<stop  offset="0.9892" style="stop-color:#BABABA"/>
	<stop  offset="1" style="stop-color:#BDBDBD"/>
</linearGradient>
<path fill="url(#SVGID_7_)" d="M538.836,52.337h-67.248v97.971h28.832V76.714h31.771v73.486h28.832V74.283
	C561.022,62.16,551.093,52.337,538.836,52.337z"/>
<linearGradient id="SVGID_8_" gradientUnits="userSpaceOnUse" x1="48.7314" y1="150.7212" x2="48.7314" y2="-0.6284">
	<stop  offset="0" style="stop-color:#3F3B3E"/>
	<stop  offset="0.4557" style="stop-color:#413D40"/>
	<stop  offset="0.6403" style="stop-color:#484447"/>
	<stop  offset="0.7759" style="stop-color:#545053"/>
	<stop  offset="0.8874" style="stop-color:#666264"/>
	<stop  offset="0.9831" style="stop-color:#7C787A"/>
	<stop  offset="1" style="stop-color:#817D7F"/>
</linearGradient>
<path fill="url(#SVGID_8_)" d="M57.265,52.157c-17.229,0-24.459,8.97-28.259,14.208V28.94c0-0.008,0-0.013,0-0.022V20.93
	c0-11.907-9.65-21.559-21.558-21.559H0.004L0,150.717h29.006v-15.184c3.008,4.801,10.486,15.188,27.02,15.188
	c22.709,0,41.438-18.34,41.438-49.787C97.463,83.602,90.023,52.157,57.265,52.157z M47.921,126.565
	c-12.524,0-18.77-8.367-18.77-24.736c0-18.896,9.117-24.992,19.133-24.992c11.446,0,20.028,8.121,20.028,25.504
	C68.312,119.043,60.081,126.565,47.921,126.565z"/>
</svg>
